<svg width="16" height="16" viewBox="0 0 16 16" fill="none" xmlns="http://www.w3.org/2000/svg">
<path
    d="M10.68 11.74C9.4744 12.6758 7.95745 13.117 6.43798 12.9738C4.91851 12.8305 3.51073 12.1137 2.50119 10.969C1.49166 9.82442 0.956259 8.33811 1.00397 6.81265C1.05169 5.2872 1.67893 3.83725 2.75803 2.75797C3.83731 1.67887 5.28726 1.05163 6.81272 1.00391C8.33817 0.956198 9.82448 1.4916 10.9691 2.50113C12.1137 3.51067 12.8306 4.91845 12.9738 6.43792C13.117 7.95739 12.6758 9.47433 11.74 10.68L14.78 13.72C14.8788 13.8116 14.9509 13.9282 14.9889 14.0575C15.027 14.1867 15.0294 14.3238 14.996 14.4544C14.9627 14.5849 14.8947 14.704 14.7993 14.7991C14.7039 14.8943 14.5846 14.9619 14.454 14.995C14.3237 15.0284 14.1867 15.0261 14.0575 14.9882C13.9284 14.9504 13.8118 14.8784 13.72 14.78L10.68 11.74ZM11.5 6.99997C11.5089 6.40357 11.3991 5.81136 11.1771 5.25779C10.955 4.70421 10.625 4.20032 10.2064 3.77542C9.78782 3.35053 9.28891 3.01311 8.7387 2.78281C8.1885 2.5525 7.59799 2.43389 7.00153 2.43389C6.40507 2.43389 5.81456 2.5525 5.26436 2.78281C4.71415 3.01311 4.21523 3.35053 3.79663 3.77542C3.37802 4.20032 3.04808 4.70421 2.826 5.25779C2.60392 5.81136 2.49414 6.40357 2.50303 6.99997C2.52064 8.18143 3.00234 9.30853 3.84406 10.1378C4.68577 10.9671 5.81994 11.4319 7.00153 11.4319C8.18312 11.4319 9.31728 10.9671 10.159 10.1378C11.0007 9.30853 11.4824 8.18143 11.5 6.99997Z" fill="#7dc21d"/>
</svg>
